<svg width="12" height="12" viewBox="0 0 12 12" fill="none" xmlns="http://www.w3.org/2000/svg">
<path d="M6 1.125C3.31195 1.125 1.125 3.31195 1.125 6C1.125 8.68805 3.31195 10.875 6 10.875C8.68805 10.875 10.875 8.68805 10.875 6C10.875 3.31195 8.68805 1.125 6 1.125ZM9.35156 8.25H8.29172C8.25888 8.24993 8.22663 8.24123 8.19821 8.22477C8.16979 8.20832 8.14619 8.18469 8.12977 8.15625L7.75148 7.5075C7.72658 7.46508 7.71934 7.41458 7.73133 7.36688L8.07961 5.9625C8.0866 5.9342 8.10009 5.90792 8.119 5.88575C8.13792 5.86358 8.16175 5.84612 8.18859 5.83477L8.84719 5.55586C8.87937 5.54221 8.91473 5.53783 8.94927 5.54322C8.98381 5.5486 9.01615 5.56353 9.04266 5.58633L10.0184 6.42586C10.0424 6.44657 10.0608 6.47304 10.0718 6.5028C10.0829 6.53256 10.0862 6.56464 10.0814 6.59602C10.0006 7.15039 9.80692 7.68229 9.51234 8.15883C9.4957 8.18662 9.47215 8.20962 9.44397 8.2256C9.41579 8.24158 9.38396 8.24999 9.35156 8.25ZM3.15281 5.55773L3.81141 5.83664C3.83825 5.848 3.86208 5.86545 3.881 5.88763C3.89991 5.9098 3.9134 5.93608 3.92039 5.96438L4.26867 7.36875C4.28066 7.41645 4.27342 7.46696 4.24852 7.50937L3.87023 8.15625C3.85381 8.18469 3.83021 8.20832 3.80179 8.22477C3.77337 8.24123 3.74112 8.24993 3.70828 8.25H2.64844C2.61638 8.25002 2.58486 8.24182 2.55687 8.22619C2.52889 8.21056 2.50538 8.18801 2.48859 8.1607C2.19402 7.68417 2.00034 7.15227 1.91953 6.59789C1.91478 6.56651 1.91807 6.53444 1.9291 6.50468C1.94013 6.47492 1.95853 6.44844 1.98258 6.42773L2.95828 5.5882C2.98469 5.56559 3.01687 5.55076 3.05123 5.54538C3.08558 5.54 3.12075 5.54428 3.15281 5.55773ZM9.17484 3.51305L8.75133 4.71727C8.74282 4.74188 8.72927 4.76444 8.71156 4.78353C8.69384 4.80262 8.67235 4.8178 8.64844 4.82812L7.95516 5.1218C7.92334 5.13526 7.88843 5.13967 7.85427 5.13454C7.8201 5.12941 7.78802 5.11494 7.76156 5.09273L6.44297 3.98672C6.4219 3.96929 6.4049 3.94746 6.39316 3.92276C6.38141 3.89806 6.37522 3.8711 6.375 3.84375V3.05672C6.37502 3.02588 6.38264 2.99552 6.3972 2.96834C6.41175 2.94115 6.43279 2.91797 6.45844 2.90086L7.46227 2.23195C7.48846 2.21447 7.51864 2.20386 7.55002 2.20112C7.5814 2.19837 7.61296 2.20358 7.6418 2.21625C8.21941 2.46816 8.732 2.84841 9.14062 3.32812C9.16211 3.3532 9.17659 3.38351 9.18259 3.41599C9.1886 3.44846 9.18593 3.48194 9.17484 3.51305ZM4.5375 2.23195L5.54156 2.90086C5.56721 2.91797 5.58825 2.94115 5.6028 2.96834C5.61736 2.99552 5.62498 3.02588 5.625 3.05672V3.84375C5.625 3.87114 5.619 3.8982 5.60742 3.92302C5.59584 3.94784 5.57896 3.96982 5.55797 3.98742L4.23938 5.09344C4.21291 5.11565 4.18083 5.13011 4.14667 5.13524C4.11251 5.14037 4.0776 5.13596 4.04578 5.1225L3.35156 4.82812C3.3275 4.81794 3.30584 4.80283 3.28796 4.78378C3.27008 4.76473 3.25638 4.74216 3.24773 4.7175L2.82422 3.51328C2.81321 3.48206 2.81067 3.44849 2.81684 3.41597C2.82302 3.38344 2.83769 3.35314 2.85938 3.32812C3.26823 2.84793 3.78125 2.46734 4.35938 2.21531C4.3881 2.20303 4.41944 2.19811 4.45055 2.20102C4.48166 2.20392 4.51155 2.21456 4.5375 2.23195ZM4.9432 9.9068L4.48078 8.74219C4.47021 8.71571 4.46581 8.68718 4.46792 8.65875C4.47003 8.63032 4.4786 8.60275 4.49297 8.57812L4.84852 7.96875C4.86494 7.94031 4.88854 7.91668 4.91696 7.90023C4.94538 7.88377 4.97763 7.87507 5.01047 7.875H6.98953C7.02237 7.87507 7.05462 7.88377 7.08304 7.90023C7.11146 7.91668 7.13506 7.94031 7.15148 7.96875L7.50727 8.57812C7.52167 8.60273 7.53028 8.63029 7.53243 8.65872C7.53459 8.68715 7.53023 8.7157 7.51969 8.74219L7.06055 9.90633C7.04932 9.93479 7.03129 9.96007 7.00805 9.97997C6.9848 9.99986 6.95704 10.0138 6.92719 10.0205C6.31792 10.1603 5.68489 10.1603 5.07562 10.0205C5.04599 10.0137 5.01845 9.99978 4.99538 9.97998C4.97231 9.96018 4.95441 9.93506 4.9432 9.9068Z" fill="black"/>
</svg>
